Coordinates
version=1
nRows=14
nColumns=36
inDegrees=yes

Units are S.I. units (second, meters, Newtons, ...)
If the header above contains a line with 'inDegrees', this indicates whether rotational values are in degrees (yes) or radians (no).

endheader
time	pelvis_tilt	pelvis_list	pelvis_rotation	pelvis_tx	pelvis_ty	pelvis_tz	hip_flexion_r	hip_adduction_r	hip_rotation_r	knee_angle_r	knee_angle_r_beta	ankle_angle_r	subtalar_angle_r	mtp_angle_r	hip_flexion_l	hip_adduction_l	hip_rotation_l	knee_angle_l	knee_angle_l_beta	ankle_angle_l	subtalar_angle_l	mtp_angle_l	lumbar_extension	lumbar_bending	lumbar_rotation	arm_flex_r	arm_add_r	arm_rot_r	elbow_flex_r	pro_sup_r	arm_flex_l	arm_add_l	arm_rot_l	elbow_flex_l	pro_sup_l
      5.73333330	     -2.63745646	      1.14310952	      8.01496653	      0.38435694	      0.92803277	     -0.08222461	     19.20039181	     -6.25699759	     -7.84734433	     44.07030069	      0.76917185	     -3.98505421	    -10.89924993	     -7.49999987	     -0.13404644	      4.04458832	     10.10925661	      5.13561753	      0.08963344	      3.91653416	      3.24758793	     -7.49999987	      2.54199009	     -5.48402869	     -8.72954014	     49.06876019	     10.41658794	     63.56378703	    133.44617203	     95.21659504	     39.74659058	      9.59864223	     66.18579285	    124.91972371	     70.00454256
      5.75000000	     -2.65738376	      1.15583751	      7.87908597	      0.38484430	      0.93068234	     -0.08234523	     19.12673042	     -6.22652888	     -7.70359983	     43.86566151	      0.76560022	     -3.78301538	    -10.96388417	     -7.49999987	     -0.17795440	      4.05719817	     10.02945584	      5.05331683	      0.08819702	      3.92486632	      3.12965487	     -7.49999987	      2.57236340	     -5.46829710	     -8.54737211	     49.12361136	     10.50737884	     63.86308323	    133.47763876	     94.48036229	     39.67732233	      9.52638918	     66.37237112	    124.90108788	     69.68110477
      5.76666670	     -2.58725641	      1.18633716	      7.82946187	      0.38398196	      0.93000361	     -0.08182261	     19.01137680	     -6.19922067	     -7.61409859	     43.75453980	      0.76366078	     -3.49513397	    -11.09350461	     -7.49999987	     -0.23997439	      4.06489852	     10.06485505	      5.01173302	      0.08747124	      3.86235237	      2.98248721	     -7.49999987	      2.47389055	     -5.49392479	     -8.55445539	     49.08179346	     10.57211394	     64.14207704	    133.41642391	     94.28948301	     39.71578351	      9.41421002	     66.46602988	    124.77913924	     69.55975670
      5.78333330	     -2.61336931	      1.17113078	      7.92888697	      0.38490597	      0.92994196	     -0.08241719	     18.91741215	     -6.18609199	     -7.67734753	     43.46454714	      0.75859946	     -2.83467385	    -10.98620154	     -7.49999987	     -0.29727414	      4.05764043	     10.04503208	      4.95527564	      0.08648588	      3.88976162	      2.97294023	     -7.49999987	      2.57241628	     -5.48998962	     -8.62820013	     48.90245075	     10.56114955	     64.18751498	    133.32436767	     97.25191157	     39.59393372	      9.31846475	     66.47712797	    124.68559558	     70.57466864
      5.80000000	     -2.67923292	      1.15029199	      7.98699286	      0.38451491	      0.93223501	     -0.08204289	     18.97477032	     -6.14843307	     -7.64456602	     43.16453355	      0.75336323	     -2.54686584	    -10.99411438	     -7.49999987	     -0.24418604	      4.03038731	      9.77713491	      5.01130608	      0.08746379	      3.58821045	      3.08005873	     -7.49999987	      2.65670634	     -5.49830189	     -8.64911341	     48.61171401	     10.48019424	     64.45421066	    133.42162559	     95.70635507	     39.31069788	      9.21468575	     66.80870463	    124.85500879	     69.97776931
      5.81666670	     -2.59024591	      1.17674900	      7.97558062	      0.38489013	      0.93001806	     -0.08233556	     18.85456202	     -6.13153597	     -7.60346355	     43.18382370	      0.75369991	     -2.18725800	    -10.98273390	     -7.49999987	     -0.34954171	      4.05601013	      9.79126316	      5.00660079	      0.08738167	      3.50053099	      2.83812697	     -7.49999987	      2.51672749	     -5.56574997	     -8.79803940	     48.57595271	     10.49911260	     64.67462542	    133.48814469	     94.65600533	     39.31201316	      9.12058376	     66.88503933	    124.80343482	     69.50794128
      5.83333330	     -2.49676340	      1.21303962	      7.95974284	      0.38471296	      0.93015244	     -0.08230574	     18.77164687	     -6.15510431	     -7.64353218	     43.29244965	      0.75559579	     -2.03377968	    -10.98254792	     -7.49999987	     -0.55604150	      4.11544425	      9.86091193	      4.94153874	      0.08624612	      3.21638098	      2.62720504	     -7.49999987	      2.37794280	     -5.58544570	     -8.84259946	     48.64364714	     10.50595791	     64.69472385	    133.35109564	     97.36613048	     39.31594852	      9.03986710	     66.87390688	    124.73404049	     70.62031688
      5.85000000	     -2.44229549	      1.20836439	      7.73817956	      0.38474120	      0.93009289	     -0.08237115	     18.69666834	     -6.14428557	     -7.51081756	     43.34594463	      0.75652945	     -2.18526735	    -11.16786763	     -7.49999987	     -0.67142743	      4.14475483	      9.64656625	      4.90728412	      0.08564827	      3.31217090	      2.53869836	     -7.49999987	      2.36119048	     -5.58433689	     -8.80697133	     48.78732933	     10.62226076	     64.63471859	    133.33515654	     97.28833026	     39.15245461	      9.10096499	     66.74780031	    124.62174727	     70.65374965
      5.86666670	     -2.51714783	      1.18162399	      7.66607033	      0.38436517	      0.93199251	     -0.08203025	     18.76966716	     -6.11929060	     -7.48361331	     43.26587056	      0.75513190	     -2.77803935	    -11.18813076	     -7.49999987	     -0.62691428	      4.16645973	      9.56982780	      4.78087402	      0.08344199	      3.08877096	      2.49391548	     -7.49999987	      2.40494156	     -5.53536360	     -8.73536764	     48.64058124	     10.45999063	     64.61525253	    133.40763851	     96.20626566	     38.91461465	      9.15821559	     66.77920570	    124.59264176	     70.14703016
      5.88333330	     -2.42184903	      1.14218149	      7.64319259	      0.38527071	      0.93218593	     -0.08257635	     18.59676366	     -6.07205257	     -7.44466404	     43.14480396	      0.75301888	     -3.20424938	    -11.15679884	     -7.49999987	     -0.79146505	      4.09924634	      9.63340326	      4.63054802	      0.08081831	      2.99905898	      2.47886998	     -7.49999987	      2.33893969	     -5.46000398	     -8.73802791	     48.69412303	     10.54556344	     64.61252336	    133.28676086	     97.27164152	     38.70473439	      9.23982239	     66.70222375	    124.46519101	     71.00933130
      5.90000000	     -2.57857670	      1.21913655	      7.58894551	      0.38482852	      0.92949951	     -0.08219485	     18.86527119	     -6.17947911	     -7.36336219	     43.29585085	      0.75565515	     -3.35501350	    -11.05464335	     -7.49999987	     -0.62432260	      4.20967241	      9.59262240	      4.64903172	      0.08114091	      3.10214415	      2.45328803	     -7.49999987	      2.51246845	     -5.58073269	     -8.56237548	     48.70881726	     10.58172789	     64.55860524	    133.29371944	     96.67855231	     38.56381020	      9.37998109	     66.64865045	    124.42323236	     70.75672143
      5.91666670	     -2.55779367	      1.29172001	      7.55249412	      0.38440677	      0.92726109	     -0.08201707	     18.98017109	     -6.25505087	     -7.39542184	     43.65804874	      0.76197670	     -3.88314303	    -11.54301348	     -7.49999987	     -0.63932676	      4.29517810	      9.62378887	      4.68588436	      0.08178411	      3.22952396	      2.28121818	     -7.49999987	      2.39371168	     -5.65131542	     -8.49841291	     48.97741066	     10.59453764	     64.25307619	    133.37634222	     96.58673599	     38.86887329	      9.41381840	     66.59071939	    124.45378447	     70.76432397
      5.93333330	     -2.75480216	      1.37332128	      7.41264736	      0.38449265	      0.92727882	     -0.08183444	     19.34240271	     -6.33631161	     -7.26908463	     43.91105898	      0.76639256	     -3.52004268	    -11.51597643	     -7.49999987	     -0.43529554	      4.42053426	      9.61289504	      4.71723938	      0.08233136	      3.51037002	      2.18360561	     -7.49999987	      2.60030784	     -5.77238949	     -8.44114448	     48.97162600	     10.57226528	     63.95199525	    133.54783123	     95.51448421	     39.00584733	      9.36345694	     66.43441529	    124.54510002	     70.23208381
      5.95000000	     -2.69892709	      1.34888838	      7.18954576	      0.38408457	      0.92977824	     -0.08144456	     19.36945269	     -6.24951525	     -7.25798207	     43.88835657	      0.76599633	     -3.56241026	    -11.57814451	     -7.49999987	     -0.52459403	      4.36281274	      9.46470571	      4.63107190	      0.08082745	      3.64222508	      2.22854969	     -7.49999987	      2.51623324	     -5.74994399	     -8.44620700	     49.04684270	     10.54662430	     63.84854819	    133.53589685	     94.61070649	     39.15705372	      9.22105045	     66.34137128	    124.57976596	     69.82126914
